<svg xmlns="http://www.w3.org/2000/svg" width="40" height="40" viewBox="0 0 40 40" fill="none">
<g clip-path="url(#clip0_166_3980)">
<path d="M17.284 0.115307C12.0084 0.829784 7.11529 3.70935 3.93983 7.96736C3.31195 8.81174 3.29752 8.84061 2.61913 9.99533C1.27677 12.2759 0.417953 14.8596 0.0571051 17.6453C-0.0728002 18.7206 -0.0583663 21.4847 0.0931899 22.5889C1.34172 31.6318 8.39991 38.7044 17.3417 39.8735C18.5975 40.0323 18.7851 40.0251 19.0666 39.7725L19.3047 39.5632L19.3264 37.9177C19.3408 36.7702 19.3264 36.2145 19.2614 36.0702C19.1315 35.7527 18.8573 35.6011 18.2944 35.5506C16.8221 35.399 14.7292 34.8145 13.3219 34.1433C8.87623 32.0431 5.63582 27.9078 4.66153 23.0941C3.247 16.137 6.71836 9.08599 13.0982 5.95383C14.6426 5.19604 16.7283 4.5826 18.2944 4.43827C19.312 4.33723 19.3553 4.23619 19.3264 2.08554L19.3047 0.418419L19.0666 0.209126C18.8645 0.0287018 18.7779 -0.000164032 18.4171 0.00704956C18.1933 0.014267 17.6809 0.0575714 17.284 0.115307Z" fill="#1642A2"/>
<path d="M21.5972 0.0504608C21.5105 0.0648956 21.3518 0.180367 21.2507 0.295837L21.0703 0.519562V2.22998C21.0703 4.09917 21.0775 4.14969 21.5033 4.3662C21.6188 4.42394 21.8137 4.47446 21.9436 4.47446C22.3838 4.47446 24.0076 4.84252 24.9675 5.16729C27.7677 6.10549 30.1853 7.77261 32.069 10.0676C33.8371 12.2183 34.9413 14.6504 35.4681 17.5732C35.6269 18.4537 35.6919 20.626 35.5836 21.5498C34.8619 27.7636 30.7555 32.8876 24.9603 34.8146C24.0004 35.1393 22.3838 35.5074 21.9436 35.5074C21.8137 35.5074 21.6188 35.5579 21.5033 35.6156C21.0775 35.8321 21.0703 35.8827 21.0703 37.7807V39.52L21.2724 39.7077C21.3806 39.8087 21.5683 39.9169 21.691 39.9386C22.1384 40.0396 24.7798 39.5344 26.05 39.1159C29.5142 37.9756 32.336 36.1497 34.8331 33.4506C36.9765 31.1339 38.6364 28.0523 39.4375 24.8985C39.9138 23.0509 40.1231 20.6837 39.9932 18.7424C39.7983 15.8917 39.156 13.4957 37.9147 11.0419C36.7239 8.68916 35.4393 6.98596 33.4474 5.13842C30.9431 2.82177 27.3996 1.01031 24.0798 0.353573C23.4447 0.230885 21.9796 -5.72205e-05 21.8642 0.00716019C21.8064 0.0143776 21.6838 0.036026 21.5972 0.0504608Z" fill="#1642A2"/>
<path d="M15.2802 16.4544C10.4448 16.5266 6.47551 16.5916 6.46107 16.6132C6.43942 16.6276 9.02309 17.5009 12.1986 18.5474C15.374 19.601 17.9721 20.4815 17.9721 20.5104C17.9721 20.5609 17.8711 20.6619 16.0019 22.3723C15.2946 23.0147 14.7317 23.5487 14.7389 23.5631C14.7606 23.5776 33.503 23.3972 33.5608 23.3827C33.5968 23.3755 32.139 22.9858 22.526 20.4165C21.9559 20.265 21.4796 20.1279 21.4579 20.1134C21.4435 20.099 22.0064 19.5505 22.7137 18.901C24.3375 17.4071 25.3623 16.4328 25.3912 16.3606C25.4056 16.3318 25.1169 16.3173 24.7416 16.3173C24.3736 16.3245 20.1156 16.3895 15.2802 16.4544Z" fill="#C8231C"/>
</g>
<defs>
<clipPath id="clip0_166_3980">
<rect width="40" height="40" fill="white"/>
</clipPath>
</defs>
</svg>