<svg xmlns="http://www.w3.org/2000/svg" width="108" height="13" viewBox="0 0 108 13" fill="none">
  <g clip-path="url(#clip0_166_4519)">
    <path d="M15.9538 0H16.9579C17.9717 0.0825676 19.0579 0.272297 19.8335 0.983784C20.4697 1.55385 20.7564 2.41115 20.8058 3.24297C20.8561 4.29703 20.7882 5.35459 20.8402 6.40865C20.9752 6.8373 21.5461 6.62736 21.8814 6.67568V9.22297C20.9982 9.22209 20.115 9.22473 19.2317 9.22209C18.8435 9.22824 18.4164 9.09736 18.1967 8.75743C18.0502 8.55716 18.0494 8.30155 18.0326 8.06615C17.04 9.51987 14.8085 9.81676 13.4011 8.80486C12.3379 8.05561 12.0344 6.46311 12.7058 5.3625C13.102 4.72216 13.7841 4.32338 14.4785 4.0748C15.5373 3.70588 16.6694 3.60135 17.7847 3.60399C17.7714 3.25439 17.7679 2.86 17.5129 2.5877C17.2297 2.29345 16.7823 2.26709 16.3994 2.29432C16.1885 2.31628 15.9273 2.36459 15.825 2.57365C15.7817 2.75635 15.7897 2.94608 15.7791 3.1323C14.8429 3.11297 13.9067 3.12878 12.9714 3.12439C12.9944 2.42608 12.8391 1.63378 13.3094 1.04176C13.9358 0.252973 15.0158 0.109797 15.9538 0ZM15.8444 5.68047C15.5505 5.83243 15.3114 6.15304 15.3891 6.49649C15.4464 6.89 15.8461 7.14736 16.2291 7.13243C17.145 7.13243 17.9073 6.23209 17.8155 5.33615C17.1485 5.33527 16.4435 5.35372 15.8444 5.68047ZM51.4217 0H52.4276C53.4414 0.0825676 54.5285 0.272297 55.3041 0.983784C55.9879 1.59601 56.2614 2.53324 56.287 3.42392C56.3144 4.41824 56.2641 5.41432 56.3108 6.40777C56.445 6.8373 57.0167 6.62736 57.352 6.67568V9.22297C56.4697 9.22209 55.5873 9.22473 54.705 9.22209C54.3141 9.22824 53.8853 9.09736 53.6647 8.7548C53.5208 8.55453 53.5191 8.30068 53.505 8.06615C52.4964 9.53919 50.2147 9.82642 48.8126 8.76095C47.7935 7.99412 47.5182 6.43588 48.18 5.35723C48.577 4.71953 49.2582 4.3225 49.9508 4.07392C51.0088 3.70588 52.14 3.60135 53.2552 3.60399C53.2526 3.18149 53.2076 2.65534 52.7841 2.43399C52.3817 2.24426 51.8788 2.22581 51.4685 2.39973C51.1888 2.52973 51.2788 2.87932 51.2594 3.12439C50.3197 3.12351 49.3808 3.12351 48.442 3.12439C48.4614 2.40851 48.3061 1.58372 48.8197 0.992568C49.4567 0.245068 50.5023 0.108919 51.4217 0ZM51.3141 5.68135C51.0229 5.83243 50.7847 6.14865 50.8579 6.48946C50.9126 6.89 51.3202 7.15088 51.7085 7.13243C52.6208 7.12628 53.3779 6.22946 53.2861 5.33615C52.6191 5.33527 51.9132 5.35372 51.3141 5.68135ZM0.0431893 0.175676C2.88084 0.174797 5.71848 0.176554 8.55613 0.174797C8.89495 0.173041 9.26378 0.211689 9.53201 0.438311C9.80731 0.675473 9.8779 1.05932 9.88054 1.40453C9.88407 3.01547 9.87878 4.62554 9.88231 6.23649C9.86643 6.41392 9.94848 6.62561 10.1452 6.65899C10.4082 6.69236 10.6747 6.67128 10.9402 6.67568V9.22297C9.99966 9.22297 9.05907 9.22297 8.11848 9.22385C7.76466 9.22385 7.37113 9.165 7.11878 8.89446C6.87701 8.62919 6.83554 8.25149 6.83642 7.90892C6.83642 6.32608 6.83907 4.74412 6.83554 3.16128C6.85848 2.96716 6.74378 2.74318 6.52937 2.73351C5.73525 2.70804 4.94025 2.73088 4.14613 2.72297C4.14525 4.88993 4.14701 7.05601 4.14613 9.22297C3.12966 9.2177 2.11231 9.23439 1.09584 9.21419C1.10907 7.05074 1.09937 4.88642 1.10113 2.72297H0.0440717C0.042307 1.87358 0.0431893 1.02507 0.0431893 0.175676ZM23.0682 0.182703C23.9938 0.166014 24.9194 0.180946 25.845 0.174797C26.1855 0.173041 26.5579 0.210811 26.8279 0.439189C27.1014 0.676351 27.172 1.0602 27.1747 1.40453C27.1782 2.07824 27.1738 2.75196 27.1755 3.42568H29.9541C29.9532 2.34439 29.9594 1.26399 29.9505 0.182703C30.9661 0.166892 31.9826 0.180068 32.9991 0.175676C33.0008 2.19682 32.9964 4.21797 33.0008 6.23912C32.9841 6.41655 33.0688 6.62824 33.2655 6.65899C33.5285 6.69149 33.7941 6.67216 34.0579 6.67568V9.22297H31.2317C30.8797 9.22385 30.487 9.16412 30.2355 8.89446C29.992 8.62655 29.9541 8.24709 29.9541 7.90189C29.9567 7.23169 29.9514 6.56061 29.9576 5.89041C29.0302 5.87811 28.1029 5.88777 27.1755 5.88514C27.1747 6.99804 27.1764 8.11007 27.1755 9.22297C26.16 9.22122 25.1444 9.22824 24.1288 9.21858C24.1332 7.20095 24.1314 5.18243 24.1297 3.16392C24.1402 2.99791 24.0794 2.79676 23.8994 2.74845C23.6258 2.69926 23.3435 2.73439 23.0673 2.71507C23.0761 1.87095 23.0744 1.02682 23.0682 0.182703ZM36.7773 0.176554C39.1641 0.174797 41.5508 0.176554 43.9376 0.174797C44.2888 0.174797 44.6797 0.231892 44.9338 0.498919C45.1808 0.765068 45.2205 1.14716 45.2205 1.49412C45.2135 3.24824 45.2029 5.00324 45.1967 6.75736C45.5285 6.76527 45.9017 6.76966 46.1647 7.00419C46.4408 7.2475 46.4929 7.64014 46.4991 7.98709V11.3311H43.7638C43.7576 10.7399 43.7752 10.1497 43.7567 9.55939C43.7603 9.37845 43.6041 9.20804 43.417 9.22649C41.7944 9.22122 40.1717 9.22034 38.55 9.22649C38.3594 9.2098 38.2058 9.38459 38.212 9.56642C38.1935 10.1541 38.2111 10.7426 38.205 11.3311H35.4697V7.99764C35.475 7.6498 35.5244 7.25453 35.7997 7.0077C36.0679 6.76703 36.4517 6.76088 36.7923 6.76088C37.74 5.64885 37.7541 4.10466 37.7647 2.72385C37.4347 2.72297 37.1055 2.72297 36.7773 2.72209C36.7764 1.87358 36.7764 1.02507 36.7773 0.176554ZM40.6244 2.73439C40.642 4.11257 40.5917 5.64446 39.675 6.76439C40.5079 6.76264 41.3417 6.76439 42.1755 6.76351C42.1747 5.56277 42.1773 4.36203 42.1747 3.16216C42.1905 2.98385 42.1032 2.7748 41.9091 2.73966C41.482 2.70541 41.0523 2.72122 40.6244 2.73439ZM72.1332 0.240676C73.3817 0.0465541 74.7105 0.289865 75.7694 0.988176C76.5873 1.52047 77.2279 2.32155 77.5464 3.24297C78.0035 4.55791 77.8464 6.08189 77.085 7.25365C76.4858 8.18824 75.5285 8.87514 74.4626 9.1852C73.0579 9.59716 71.4679 9.41358 70.2326 8.61514C69.3458 8.04946 68.6682 7.16669 68.3647 6.16095C67.9641 4.84865 68.1467 3.35014 68.9311 2.21088C69.6547 1.13926 70.8582 0.432162 72.1332 0.240676ZM72.3008 1.72338C71.7052 1.85162 71.1458 2.15466 70.7276 2.59736C69.69 3.66986 69.6105 5.48372 70.4876 6.67568C70.9297 7.28791 71.6126 7.71655 72.3547 7.86149C73.4991 8.09953 74.7688 7.64101 75.45 6.68534C76.3897 5.40993 76.2291 3.42041 74.9964 2.38743C74.2694 1.75764 73.2379 1.52135 72.3008 1.72338ZM83.5782 0.280203C84.6582 0.0386487 85.8626 0.197635 86.7697 0.855541C87.7676 1.56878 88.2926 2.77304 88.4285 3.96061C88.5961 5.35635 88.3623 6.87858 87.4535 7.99676C86.3726 9.36615 84.277 9.80534 82.7338 8.98757C82.282 8.74777 81.9114 8.38061 81.6247 7.96162C81.7014 9.55149 81.6423 11.1449 81.66 12.7365H79.9402C79.9385 9.22209 79.9429 5.70858 79.9385 2.19419C79.9517 2.03081 79.8582 1.84459 79.6808 1.82088C79.3985 1.79014 79.1144 1.81122 78.832 1.80595C78.8303 1.32372 78.8329 0.841486 78.8302 0.359257C79.4073 0.355743 79.9844 0.353108 80.5614 0.359257C80.872 0.368919 81.2276 0.450608 81.4076 0.729054C81.6008 1.03824 81.5144 1.42209 81.525 1.76554C81.9653 1.01365 82.7276 0.472568 83.5782 0.280203ZM83.917 1.68561C83.2332 1.74797 82.5776 2.10635 82.1858 2.67291C81.6944 3.37385 81.5753 4.26453 81.6194 5.09986C81.6847 6.00986 82.0455 6.96027 82.8044 7.51716C83.6814 8.16277 85.0041 8.05561 85.7885 7.30986C86.4644 6.68182 86.73 5.72878 86.7308 4.83196C86.737 3.94568 86.505 3.00318 85.8679 2.35318C85.3711 1.83669 84.6229 1.60743 83.917 1.68561ZM100.486 1.65574C101.935 0.0922298 104.452 -0.231892 106.339 0.683378C106.803 0.917027 107.226 1.31845 107.314 1.84811C107.362 2.23635 107.327 2.62899 107.337 3.01899C106.822 3.01986 106.308 3.01986 105.794 3.01899C105.78 2.71595 105.861 2.34966 105.609 2.11777C105.281 1.80419 104.813 1.69878 104.375 1.64608C103.264 1.53892 102.089 2.05716 101.507 3.02162C100.839 4.12487 100.857 5.64534 101.637 6.68885C102.266 7.52595 103.351 7.93351 104.381 7.87818C105.371 7.83601 106.293 7.35115 106.996 6.67392C107.228 7.07885 107.477 7.475 107.712 7.87818C105.946 9.79392 102.603 9.92831 100.699 8.14432C98.9214 6.49736 98.8358 3.41953 100.486 1.65574ZM58.4055 0.3575C59.8491 0.355743 61.2926 0.356622 62.7361 0.356622C63.6273 0.333784 64.59 0.380338 65.3444 0.91C66.4111 1.63378 66.4685 3.40899 65.4617 4.20743C65.2932 4.3427 65.1 4.43932 64.9094 4.53858C65.4326 4.65892 65.9285 4.94527 66.232 5.39588C66.682 6.04324 66.72 6.91547 66.4429 7.63926C66.1879 8.29277 65.5888 8.75655 64.935 8.97527C64.1735 9.25284 63.352 9.22649 62.5552 9.22297C61.8785 9.22122 61.2017 9.22561 60.5258 9.22209C60.2461 9.21946 59.9311 9.18872 59.7282 8.97439C59.527 8.76007 59.5155 8.45 59.5138 8.17331C59.5129 6.05115 59.5147 3.92811 59.5129 1.80595C59.1458 1.80682 58.7797 1.80419 58.4135 1.80946C58.3967 1.32547 58.4082 0.841487 58.4055 0.3575ZM61.2344 1.54331V4.04054C61.8564 4.03527 62.4785 4.05284 63.1005 4.03088C63.585 4.0098 64.117 3.8025 64.3314 3.33872C64.5397 2.87493 64.4982 2.24865 64.0958 1.89905C63.7711 1.62061 63.3247 1.55297 62.9108 1.54419C62.3514 1.5398 61.7929 1.54419 61.2344 1.54331ZM61.2344 5.18243C61.2335 5.97209 61.2352 6.76176 61.2335 7.55142C61.2282 7.70865 61.2414 7.90716 61.4082 7.98182C61.6967 8.0398 61.9967 7.99764 62.2905 8.00905C62.9452 7.99764 63.6529 8.08723 64.2467 7.74818C65.0461 7.31601 65.0911 6.01074 64.3394 5.51095C63.9502 5.24392 63.4614 5.18507 63 5.18243C62.4114 5.18155 61.8229 5.18243 61.2344 5.18243ZM89.595 0.359257C90.1711 0.354865 90.7473 0.356622 91.3244 0.356622C91.627 0.3575 91.9676 0.409324 92.1829 0.64473C92.3911 0.873986 92.4211 1.20074 92.4255 1.49588C92.4273 2.27061 92.4238 3.04534 92.4264 3.82095C92.9611 3.79108 93.6317 3.94831 94.0323 3.49507C94.785 2.45858 95.4908 1.38784 96.2435 0.350473C96.8823 0.364527 97.522 0.35223 98.1608 0.3575C97.4673 1.35007 96.7711 2.34176 96.0758 3.33432C95.7635 3.76034 95.5005 4.25311 95.032 4.53419C95.332 4.70899 95.5676 4.97162 95.7405 5.26939C96.1561 5.9677 96.57 6.66777 96.9855 7.36696C97.2203 7.89047 97.8617 7.7473 98.3232 7.77277C98.3179 8.25412 98.3223 8.73547 98.3205 9.2177C97.7497 9.20716 97.1779 9.24318 96.6097 9.19487C96.2294 9.17115 95.8985 8.93223 95.7176 8.60547C95.1326 7.61115 94.5758 6.60013 93.99 5.60581C93.6423 5.1025 92.9417 5.31946 92.4264 5.27027C92.4255 6.5852 92.4238 7.89926 92.4273 9.21419C91.8529 9.22209 91.2794 9.21595 90.7058 9.2177C90.7023 6.87595 90.7085 4.53419 90.7032 2.19243C90.7164 2.02642 90.6185 1.83845 90.4376 1.82C90.1579 1.79101 89.8764 1.81122 89.5967 1.80595C89.595 1.32372 89.5976 0.841486 89.595 0.359257Z" fill="#1642A2"/>
  </g>
  <defs>
    <clipPath id="clip0_166_4519">
      <rect width="108" height="13" fill="white"/>
    </clipPath>
  </defs>
</svg>