<svg xmlns="http://www.w3.org/2000/svg" width="20" height="20" viewBox="0 0 20 20" fill="none">
  <path d="M13.3564 7.93267L13.3564 7.93266L13.355 7.93134C13.2483 7.82729 13.1049 7.76948 12.9558 7.77042C12.8068 7.77137 12.6641 7.83099 12.5587 7.93638C12.4533 8.04177 12.3937 8.18445 12.3928 8.33349C12.3918 8.48253 12.4496 8.62594 12.5537 8.73266L12.5537 8.73267L12.555 8.73401L13.2544 9.43334H6.82367L7.52302 8.73401L7.52303 8.73402L7.52435 8.73266C7.6284 8.62594 7.68621 8.48253 7.68527 8.33349C7.68433 8.18444 7.6247 8.04177 7.51931 7.93638C7.41392 7.83099 7.27125 7.77137 7.12221 7.77042C6.97316 7.76948 6.82975 7.82729 6.72303 7.93134L6.72302 7.93133L6.72168 7.93267L5.05501 9.59934L5.055 9.59935C4.94875 9.70562 4.88906 9.84974 4.88906 10C4.88906 10.1503 4.94875 10.2944 5.055 10.4007L5.05501 10.4007L6.72168 12.0673L6.72167 12.0674L6.72303 12.0687C6.82975 12.1727 6.97316 12.2305 7.12221 12.2296C7.27125 12.2287 7.41392 12.169 7.51931 12.0636C7.6247 11.9582 7.68433 11.8156 7.68527 11.6665C7.68621 11.5175 7.6284 11.3741 7.52435 11.2674L7.52436 11.2673L7.52302 11.266L6.82367 10.5667H13.2544L12.5564 11.2647C12.5561 11.2649 12.5559 11.2652 12.5556 11.2654C12.5023 11.3176 12.4597 11.3799 12.4305 11.4486C12.4011 11.5176 12.3858 11.5918 12.3853 11.6668C12.3848 11.7418 12.3992 11.8162 12.4277 11.8856C12.4562 11.955 12.4982 12.0181 12.5513 12.0711C12.6043 12.1242 12.6674 12.1661 12.7368 12.1946C12.8062 12.2231 12.8805 12.2375 12.9555 12.2371C13.0306 12.2366 13.1047 12.2212 13.1738 12.1919C13.2425 12.1626 13.3047 12.1201 13.357 12.0667C13.3572 12.0665 13.3574 12.0662 13.3577 12.066L15.023 10.4007L15.023 10.4007C15.1293 10.2944 15.189 10.1503 15.189 10C15.189 9.84974 15.1293 9.70562 15.023 9.59935L15.023 9.59934L13.3564 7.93267Z" fill="#C8231C" stroke="#C8231C" stroke-width="0.3"/>
  <path d="M1.39338 3.2032C1.4652 3.17348 1.54217 3.15821 1.6199 3.15825L1.61979 3.33325L1.61969 3.15825C1.69741 3.15821 1.77439 3.17348 1.8462 3.2032C1.91802 3.23293 1.98328 3.27651 2.03824 3.33147C2.0932 3.38643 2.13678 3.45169 2.16651 3.52351C2.19623 3.59533 2.21151 3.6723 2.21146 3.75002M1.39338 3.2032L2.03646 16.2499C2.03646 16.3604 1.99256 16.4664 1.91442 16.5445C1.83628 16.6227 1.7303 16.6666 1.61979 16.6666C1.50928 16.6666 1.4033 16.6227 1.32516 16.5445C1.24702 16.4664 1.20312 16.3604 1.20312 16.2499V3.74992L1.02813 3.75002L1.02813 16.2499C1.02813 16.4068 1.09046 16.5573 1.20142 16.6683C1.31238 16.7792 1.46287 16.8416 1.61979 16.8416C1.77671 16.8416 1.9272 16.7792 2.03816 16.6683C2.14912 16.5573 2.21146 16.4068 2.21146 16.2499V3.75002M1.39338 3.2032C1.32156 3.23293 1.25631 3.27651 1.20135 3.33147C1.14639 3.38643 1.1028 3.45169 1.07308 3.52351C1.04337 3.59529 1.02809 3.67223 1.02813 3.74992L1.39338 3.2032ZM2.21146 3.75002L2.03646 3.74992H2.21146V3.75002Z" fill="#C8231C" stroke="#C8231C" stroke-width="0.35"/>
  <path d="M18.2293 3.2032C18.3011 3.17348 18.3781 3.15821 18.4558 3.15825L18.4557 3.33325L18.4556 3.15825C18.5333 3.15821 18.6103 3.17348 18.6821 3.2032C18.754 3.23293 18.8192 3.27651 18.8742 3.33147C18.9291 3.38643 18.9727 3.45169 19.0024 3.52351C19.0322 3.59533 19.0474 3.6723 19.0474 3.75002M18.2293 3.2032L18.8724 16.2499C18.8724 16.3604 18.8285 16.4664 18.7504 16.5445C18.6722 16.6227 18.5662 16.6666 18.4557 16.6666C18.3452 16.6666 18.2392 16.6227 18.1611 16.5445C18.083 16.4664 18.0391 16.3604 18.0391 16.2499V3.74992L17.8641 3.75002L17.8641 16.2499C17.8641 16.4068 17.9264 16.5573 18.0374 16.6683C18.1483 16.7792 18.2988 16.8416 18.4557 16.8416C18.6126 16.8416 18.7631 16.7792 18.8741 16.6683C18.9851 16.5573 19.0474 16.4068 19.0474 16.2499V3.75002M18.2293 3.2032C18.1575 3.23293 18.0922 3.27651 18.0373 3.33147C17.9823 3.38643 17.9387 3.45169 17.909 3.52351C17.8793 3.59529 17.864 3.67223 17.8641 3.74992L18.2293 3.2032ZM19.0474 3.75002L18.8724 3.74992H19.0474V3.75002Z" fill="#C8231C" stroke="#C8231C" stroke-width="0.35"/>
</svg>