<svg xmlns="http://www.w3.org/2000/svg" width="20" height="20" viewBox="0 0 20 20" fill="none">
  <g clip-path="url(#clip0_166_4208)">
    <path d="M2.47334 9.525H0.152344H-0.0226562V9.7V10.3V10.475H0.152344H2.47334V12.55V12.725H2.64834H5.93572C6.37311 13.3794 6.96232 13.9189 7.65365 14.2972C8.37317 14.6908 9.18017 14.8972 10.0003 14.8972C10.8205 14.8972 11.6275 14.6908 12.347 14.2972C13.0384 13.9189 13.6276 13.3794 14.065 12.725H17.3523H17.5273V12.55V10.475H19.8483H20.0233V10.3V9.7V9.525H19.8483H17.5273V7.45V7.275H17.3523H14.065C13.6276 6.62063 13.0384 6.08111 12.347 5.70285C11.6275 5.30917 10.8205 5.10283 10.0003 5.10283C9.18017 5.10283 8.37317 5.30917 7.65365 5.70285C6.96232 6.08111 6.37311 6.62063 5.93572 7.275H2.64834H2.47334V7.45V9.525ZM3.42334 11.775V8.225H5.43826C5.21722 8.78988 5.10334 9.39185 5.10334 10C5.10334 10.6082 5.21722 11.2101 5.43826 11.775H3.42334ZM13.7846 11.1121C13.5037 12.0514 12.8776 12.8497 12.0322 13.3463C11.1868 13.843 10.1847 14.0013 9.22732 13.7893C8.26996 13.5773 7.42832 13.0108 6.87159 12.2036C6.31485 11.3964 6.08428 10.4085 6.22622 9.43824C6.36817 8.46802 6.8721 7.58749 7.63673 6.97364C8.40136 6.35979 9.37001 6.05813 10.348 6.12928C11.3259 6.20043 12.2407 6.63913 12.9084 7.35719C13.5761 8.07524 13.9473 9.01942 13.9473 9.99995C13.9464 10.3765 13.8916 10.751 13.7846 11.1121ZM16.5773 11.775H14.5624C14.7835 11.2101 14.8974 10.6082 14.8974 10C14.8974 9.39185 14.7835 8.78988 14.5624 8.225H16.5773V11.775Z" fill="#C8231C" stroke="#C8231C" stroke-width="0.35"/>
  </g>
  <defs>
    <clipPath id="clip0_166_4208">
      <rect width="20" height="20" fill="white"/>
    </clipPath>
  </defs>
</svg>