<svg xmlns="http://www.w3.org/2000/svg" width="20" height="20" viewBox="0 0 20 20" fill="none">
  <path d="M10.0002 5.02C10.4602 5.02 10.8402 4.64 10.8402 4.18V1.34C10.8402 0.88 10.4602 0.5 10.0002 0.5C9.54016 0.5 9.16016 0.88 9.16016 1.34V4.18C9.16016 4.64 9.54016 5.02 10.0002 5.02Z" fill="#C8231C"/>
  <path d="M5.28109 6.47989C5.44109 6.63989 5.66109 6.71989 5.88109 6.71989C6.10109 6.71989 6.32109 6.63989 6.48109 6.47989C6.82109 6.13989 6.82109 5.61989 6.48109 5.27989L5.20109 4.01989C4.86109 3.67989 4.34109 3.67989 4.00109 4.01989C3.66109 4.35989 3.66109 4.87989 4.00109 5.21989L5.28109 6.47989Z" fill="#C8231C"/>
  <path d="M5.28062 13.5199L4.02062 14.7999C3.68063 15.1399 3.68063 15.6599 4.02062 15.9999C4.18062 16.1599 4.40062 16.2399 4.62062 16.2399C4.84062 16.2399 5.06062 16.1599 5.22062 15.9999L6.50062 14.7199C6.84062 14.3799 6.84062 13.8599 6.50062 13.5199C6.16062 13.1799 5.62062 13.1799 5.28062 13.5199Z" fill="#C8231C"/>
  <path d="M10.0002 14.98C9.54016 14.98 9.16016 15.36 9.16016 15.82V18.66C9.16016 19.12 9.54016 19.5 10.0002 19.5C10.4602 19.5 10.8402 19.12 10.8402 18.66V15.82C10.8402 15.36 10.4602 14.98 10.0002 14.98Z" fill="#C8231C"/>
  <path d="M14.7206 13.5199C14.3806 13.1799 13.8606 13.1799 13.5206 13.5199C13.1806 13.8599 13.1806 14.3799 13.5206 14.7199L14.8006 15.9999C14.9606 16.1599 15.1806 16.2399 15.4006 16.2399C15.6206 16.2399 15.8406 16.1599 16.0006 15.9999C16.3406 15.6599 16.3406 15.1399 16.0006 14.7999L14.7206 13.5199Z" fill="#C8231C"/>
  <path d="M18.6605 9.15991H15.8205C15.3605 9.15991 14.9805 9.53991 14.9805 9.99991C14.9805 10.4599 15.3605 10.8399 15.8205 10.8399H18.6605C19.1205 10.8399 19.5005 10.4599 19.5005 9.99991C19.5005 9.53991 19.1205 9.15991 18.6605 9.15991Z" fill="#C8231C"/>
  <path d="M14.1206 6.72012C14.3406 6.72012 14.5606 6.64012 14.7206 6.48012L16.0006 5.20012C16.3406 4.86012 16.3406 4.34012 16.0006 4.00012C15.6606 3.66012 15.1406 3.66012 14.8006 4.00012L13.5206 5.28012C13.1806 5.62012 13.1806 6.14012 13.5206 6.48012C13.6806 6.64012 13.9006 6.72012 14.1206 6.72012Z" fill="#C8231C"/>
  <path d="M10 7.08008C8.7 7.08008 7.6 7.96008 7.22 9.14008H1.34C0.88 9.14008 0.5 9.52008 0.5 9.98008C0.5 10.4601 0.88 10.8201 1.34 10.8201H7.22C7.58 12.0201 8.68 12.8801 10 12.8801C11.6 12.8801 12.92 11.5801 12.92 9.96008C12.92 8.40008 11.6 7.08008 10 7.08008ZM10 11.2201C9.32 11.2201 8.78 10.6801 8.78 10.0001C8.78 9.32008 9.32 8.78008 10 8.78008C10.68 8.78008 11.22 9.32008 11.22 10.0001C11.22 10.6801 10.68 11.2201 10 11.2201Z" fill="#C8231C"/>
</svg>