<svg xmlns="http://www.w3.org/2000/svg" width="20" height="20" viewBox="0 0 20 20" fill="none">
  <path d="M18.0419 17.3554C17.2938 17.3554 16.5438 17.3554 15.7958 17.3554C14.6122 17.3554 13.4306 17.3554 12.247 17.3554C11.9774 17.3554 11.7079 17.3554 11.4384 17.3554C11.6981 17.6152 11.9599 17.8769 12.2196 18.1367C12.2196 17.8847 12.2196 17.6328 12.2196 17.3808C12.2196 16.7793 12.2196 16.1757 12.2196 15.5742C12.2196 14.8417 12.2196 14.1113 12.2196 13.3789C12.2196 12.75 12.2196 12.1191 12.2196 11.4902C12.2196 11.1835 12.2274 10.875 12.2196 10.5664C12.2196 10.5625 12.2196 10.5585 12.2196 10.5527C12.0907 10.7773 11.9618 11.0019 11.8329 11.2265C12.0516 11.0585 12.2704 10.8886 12.4911 10.7207C13.0165 10.3164 13.5438 9.91206 14.0692 9.50776C14.7059 9.01753 15.3427 8.52925 15.9774 8.03901C16.5263 7.61714 17.0731 7.19722 17.622 6.77534C17.8895 6.57026 18.163 6.36909 18.4247 6.15815C18.4286 6.15425 18.4325 6.1523 18.4364 6.14839C18.0438 5.92378 17.6532 5.69917 17.2606 5.47456C17.2606 5.89448 17.2606 6.3144 17.2606 6.73433C17.2606 7.74214 17.2606 8.7519 17.2606 9.75972C17.2606 10.9804 17.2606 12.1992 17.2606 13.4199C17.2606 14.4746 17.2606 15.5273 17.2606 16.582C17.2606 17.0937 17.2528 17.6054 17.2606 18.1152C17.2606 18.123 17.2606 18.1289 17.2606 18.1367C17.2606 18.5449 17.62 18.9375 18.0419 18.9179C18.4657 18.8984 18.8231 18.5742 18.8231 18.1367C18.8231 17.7167 18.8231 17.2968 18.8231 16.8769C18.8231 15.8691 18.8231 14.8593 18.8231 13.8515C18.8231 12.6308 18.8231 11.4121 18.8231 10.1914C18.8231 9.13667 18.8231 8.08394 18.8231 7.02925C18.8231 6.51753 18.8309 6.00581 18.8231 5.49605C18.8231 5.48823 18.8231 5.48237 18.8231 5.47456C18.8231 5.19917 18.6747 4.9394 18.4364 4.80073C18.2177 4.67378 17.8622 4.63667 17.6474 4.80073C17.4442 4.95698 17.2411 5.11323 17.038 5.26948C16.5477 5.64644 16.0556 6.02534 15.5653 6.4023C14.9559 6.87105 14.3466 7.3398 13.7372 7.80855C13.1864 8.23237 12.6376 8.65425 12.0868 9.07808C11.7645 9.32612 11.4423 9.57222 11.122 9.82026C11.0985 9.83784 11.0731 9.85737 11.0497 9.87495C11.0477 9.8769 11.0458 9.8769 11.0438 9.87886C10.8602 10.0195 10.9266 9.94917 10.8251 10.08C10.7177 10.2187 10.661 10.375 10.6571 10.5527C10.6571 10.5585 10.6571 10.5625 10.6571 10.5683C10.6552 10.6757 10.6571 10.7851 10.6571 10.8925C10.6571 11.4355 10.6571 11.9785 10.6571 12.5214C10.6571 13.2753 10.6571 14.0292 10.6571 14.7812C10.6571 15.4882 10.6571 16.1953 10.6571 16.9023C10.6571 17.2949 10.6571 17.6875 10.6571 18.08C10.6571 18.0976 10.6571 18.1171 10.6571 18.1347C10.6571 18.5566 11.0145 18.916 11.4384 18.916C12.1864 18.916 12.9364 18.916 13.6845 18.916C14.8681 18.916 16.0497 18.916 17.2333 18.916C17.5028 18.916 17.7724 18.916 18.0419 18.916C18.4501 18.916 18.8427 18.5566 18.8231 18.1347C18.8036 17.7128 18.4794 17.3554 18.0419 17.3554Z" fill="#C8231C"/>
  <path d="M11.4373 17.3554C10.6892 17.3554 9.94314 17.3554 9.1951 17.3554C8.00369 17.3554 6.81424 17.3554 5.62283 17.3554C5.34939 17.3554 5.07596 17.3554 4.80447 17.3554C5.06424 17.6152 5.32596 17.8769 5.58572 18.1367C5.58572 17.8847 5.58572 17.6328 5.58572 17.3808C5.58572 16.7792 5.58572 16.1757 5.58572 15.5742C5.58572 14.8417 5.58572 14.1113 5.58572 13.3789C5.58572 12.75 5.58572 12.1191 5.58572 11.4902C5.58572 11.1835 5.59353 10.875 5.58572 10.5664C5.58572 10.5625 5.58572 10.5585 5.58572 10.5527C5.45681 10.7773 5.32791 11.0019 5.199 11.2265C5.4197 11.0585 5.64041 10.8886 5.86111 10.7207C6.38846 10.3183 6.91385 9.91401 7.44119 9.51167C8.07986 9.02144 8.72049 8.53315 9.35916 8.04292C9.90994 7.62105 10.4607 7.19917 11.0115 6.7773C11.281 6.57222 11.5545 6.37105 11.8201 6.15815C11.824 6.15425 11.8279 6.1523 11.8318 6.15034C11.4392 5.92573 11.0486 5.70112 10.656 5.47651C10.656 5.89644 10.656 6.31636 10.656 6.73628C10.656 7.74409 10.656 8.75386 10.656 9.76167C10.656 10.9824 10.656 12.2011 10.656 13.4218C10.656 14.4765 10.656 15.5292 10.656 16.5839C10.656 17.0957 10.6482 17.6074 10.656 18.1171C10.656 18.1249 10.656 18.1308 10.656 18.1386C10.656 18.5468 11.0154 18.9394 11.4373 18.9199C11.8611 18.9003 12.2185 18.5761 12.2185 18.1386C12.2185 17.7187 12.2185 17.2988 12.2185 16.8789C12.2185 15.871 12.2185 14.8613 12.2185 13.8535C12.2185 12.6328 12.2185 11.414 12.2185 10.1933C12.2185 9.13862 12.2185 8.08589 12.2185 7.0312C12.2185 6.51948 12.2263 6.00776 12.2185 5.498C12.2185 5.49019 12.2185 5.48433 12.2185 5.47651C12.2185 5.20112 12.0701 4.94136 11.8318 4.80269C11.6131 4.67573 11.2576 4.63862 11.0428 4.80269C10.8396 4.95894 10.6365 5.11323 10.4334 5.26948C9.94119 5.64644 9.44705 6.02534 8.95486 6.4023C8.34549 6.86909 7.73416 7.33589 7.12478 7.80269C6.57205 8.22651 6.01736 8.65034 5.46463 9.07417C5.14041 9.32222 4.81619 9.57026 4.49197 9.81831C4.46658 9.83784 4.44314 9.85542 4.41775 9.87495C4.25564 9.99995 4.10135 10.1328 4.05252 10.3476C4.03689 10.4179 4.02713 10.496 4.02517 10.5683C4.02127 10.6757 4.02517 10.7832 4.02517 10.8906C4.02517 11.4316 4.02517 11.9746 4.02517 12.5156C4.02517 13.2714 4.02517 14.0292 4.02517 14.7851C4.02517 15.4921 4.02517 16.1992 4.02517 16.9062C4.02517 17.2988 4.02517 17.6914 4.02517 18.0839C4.02517 18.1015 4.02517 18.121 4.02517 18.1386C4.02517 18.5605 4.3826 18.9199 4.80642 18.9199C5.55447 18.9199 6.30056 18.9199 7.04861 18.9199C8.24002 18.9199 9.42947 18.9199 10.6209 18.9199C10.8943 18.9199 11.1678 18.9199 11.4392 18.9199C11.8474 18.9199 12.24 18.5605 12.2205 18.1386C12.199 17.7128 11.8748 17.3554 11.4373 17.3554Z" fill="#C8231C"/>
  <path d="M2.73898 18.1367C2.73898 17.9941 2.73898 17.8516 2.73898 17.707C2.73898 17.3184 2.73898 16.9297 2.73898 16.541C2.73898 15.9688 2.73898 15.3965 2.73898 14.8242C2.73898 14.123 2.73898 13.4219 2.73898 12.7227C2.73898 11.9551 2.73898 11.1875 2.73898 10.4199C2.73898 9.64844 2.73898 8.87695 2.73898 8.10742C2.73898 7.38672 2.73898 6.66406 2.73898 5.94336C2.73898 5.33398 2.73898 4.72656 2.73898 4.11719C2.73898 3.68164 2.73898 3.24609 2.73898 2.80859C2.73898 2.60547 2.73703 2.40234 2.73898 2.19727C2.73898 2.17188 2.74093 2.14844 2.74289 2.12109C2.73312 2.18945 2.72336 2.25977 2.71554 2.32812C2.7214 2.30273 2.72726 2.2793 2.73898 2.25391C2.71359 2.31641 2.68625 2.37891 2.66086 2.44141C2.67257 2.41797 2.68429 2.39844 2.69992 2.37695C2.6589 2.42969 2.61789 2.48242 2.57687 2.53516C2.59445 2.51562 2.61007 2.49805 2.62961 2.48242C2.57687 2.52344 2.52414 2.56445 2.4714 2.60547C2.49289 2.58984 2.51242 2.57812 2.53586 2.56641C2.47336 2.5918 2.41086 2.61914 2.34836 2.64453C2.37375 2.63477 2.39523 2.62695 2.42257 2.62109C2.35422 2.63086 2.2839 2.64063 2.21554 2.64844C2.29953 2.63672 2.38742 2.64453 2.47336 2.64453C2.65109 2.64453 2.82882 2.64453 3.00656 2.64453C3.41476 2.64453 3.82297 2.64453 4.23117 2.64453C4.33468 2.64453 4.44211 2.63672 4.54562 2.64844C4.47726 2.63867 4.40695 2.62891 4.33859 2.62109C4.36398 2.62695 4.38742 2.63281 4.41281 2.64453C4.35031 2.61914 4.28781 2.5918 4.22531 2.56641C4.24875 2.57812 4.26828 2.58984 4.28976 2.60547C4.23703 2.56445 4.18429 2.52344 4.13156 2.48242C4.15109 2.5 4.16867 2.51562 4.18429 2.53516C4.14328 2.48242 4.10226 2.42969 4.06125 2.37695C4.07687 2.39844 4.08859 2.41797 4.10031 2.44141C4.07492 2.37891 4.04757 2.31641 4.02218 2.25391C4.03195 2.2793 4.03976 2.30078 4.04562 2.32812C4.03586 2.25977 4.02609 2.18945 4.01828 2.12109C4.03781 2.27344 4.02218 2.43555 4.02218 2.58984C4.02218 2.97461 4.02218 3.36133 4.02218 3.74609C4.02218 4.31641 4.02218 4.88477 4.02218 5.45508C4.02218 6.1543 4.02218 6.85352 4.02218 7.55273C4.02218 8.32031 4.02218 9.08594 4.02218 9.85352C4.02218 10.625 4.02218 11.3965 4.02218 12.168C4.02218 12.8906 4.02218 13.6133 4.02218 14.3359C4.02218 14.9473 4.02218 15.5586 4.02218 16.168C4.02218 16.6074 4.02218 17.0469 4.02218 17.4863C4.02218 17.6934 4.02023 17.9023 4.02218 18.1094C4.02218 18.1172 4.02218 18.127 4.02218 18.1367C4.28195 17.877 4.54367 17.6152 4.80343 17.3555C3.9714 17.3555 3.13742 17.3555 2.30539 17.3555C2.1882 17.3555 2.07101 17.3555 1.95382 17.3555C1.54562 17.3555 1.15304 17.7148 1.17257 18.1367C1.19211 18.5605 1.51632 18.918 1.95382 18.918C2.78586 18.918 3.61984 18.918 4.45187 18.918C4.56906 18.918 4.68625 18.918 4.80343 18.918C5.22531 18.918 5.58468 18.5605 5.58468 18.1367C5.58468 17.9687 5.58468 17.8008 5.58468 17.6328C5.58468 17.1797 5.58468 16.7266 5.58468 16.2754C5.58468 15.6152 5.58468 14.9551 5.58468 14.2949C5.58468 13.5039 5.58468 12.7129 5.58468 11.9219C5.58468 11.0762 5.58468 10.2324 5.58468 9.38672C5.58468 8.56445 5.58468 7.74414 5.58468 6.92188C5.58468 6.20117 5.58468 5.48047 5.58468 4.75781C5.58468 4.21484 5.58468 3.66992 5.58468 3.12695C5.58468 2.83789 5.58468 2.54688 5.58468 2.25781C5.58468 1.93164 5.49093 1.60156 5.23507 1.37695C5.01828 1.1875 4.77218 1.08984 4.48507 1.08203C4.45382 1.08203 4.42453 1.08203 4.39328 1.08203C4.2507 1.08203 4.10812 1.08203 3.96554 1.08203C3.5632 1.08203 3.16086 1.08203 2.75851 1.08203C2.61984 1.08203 2.48117 1.08203 2.3425 1.08203C2.01632 1.08203 1.70773 1.17969 1.47531 1.42188C1.14328 1.76953 1.17257 2.17188 1.17257 2.59766C1.17257 3.0293 1.17257 3.45898 1.17257 3.89062C1.17257 4.53516 1.17257 5.18164 1.17257 5.82617C1.17257 6.60938 1.17257 7.39062 1.17257 8.17383C1.17257 9.01758 1.17257 9.85938 1.17257 10.7031C1.17257 11.5293 1.17257 12.3555 1.17257 13.1836C1.17257 13.916 1.17257 14.6504 1.17257 15.3828C1.17257 15.9453 1.17257 16.5078 1.17257 17.0703C1.17257 17.3848 1.17257 17.7012 1.17257 18.0156C1.17257 18.0566 1.17257 18.0977 1.17257 18.1387C1.17257 18.5469 1.53195 18.9395 1.95382 18.9199C2.38156 18.8984 2.73898 18.5742 2.73898 18.1367Z" fill="#C8231C"/>
</svg>