<svg xmlns="http://www.w3.org/2000/svg" width="20" height="20" viewBox="0 0 20 20" fill="none">
  <path d="M10.0008 18.3501C5.41035 18.3501 1.65078 14.5205 1.65078 9.86882V2.20007C1.6508 2.0542 1.70875 1.91432 1.81188 1.81118C1.91502 1.70804 2.0549 1.65009 2.20077 1.65007H6.80078C6.94666 1.65009 7.08654 1.70804 7.18968 1.81118C7.29282 1.91432 7.35077 2.0542 7.35078 2.20006V9.80007C7.35078 10.6386 7.61966 11.3507 8.08038 11.8515C8.54006 12.3511 9.19917 12.6501 10.0008 12.6501C10.8024 12.6501 11.4615 12.3511 11.9212 11.8515C12.3819 11.3507 12.6508 10.6386 12.6508 9.80007V2.20007C12.6508 2.0542 12.7087 1.91432 12.8119 1.81118C12.915 1.70804 13.0549 1.65009 13.2008 1.65007H17.8008C17.9467 1.65009 18.0865 1.70804 18.1897 1.81118C18.2928 1.91432 18.3508 2.0542 18.3508 2.20006V9.86882C18.3508 14.5205 14.5912 18.3501 10.0008 18.3501ZM10.0008 17.2501C13.9756 17.2501 17.2508 13.9289 17.2508 9.86882V5.15007H13.7508V9.80007C13.7508 11.9766 12.1928 13.7501 10.0008 13.7501C7.80875 13.7501 6.25078 11.9766 6.25078 9.80007V5.15007H2.75078V9.86882C2.75078 13.9289 6.02597 17.2501 10.0008 17.2501ZM2.75078 4.05007H6.25078V2.75007H2.75078V4.05007ZM13.7508 4.05007H17.2508V2.75007H13.7508V4.05007Z" fill="#C8231C" stroke="#C8231C" stroke-width="0.3"/>
</svg>