<svg xmlns="http://www.w3.org/2000/svg" width="20" height="20" viewBox="0 0 20 20" fill="none">
  <path fill-rule="evenodd" clip-rule="evenodd" d="M4.26155 5.30582C4.69704 3.22715 6.53961 1.66663 8.7474 1.66663C10.1745 1.66663 11.4486 2.3193 12.2883 3.33977C12.3576 3.33547 12.4272 3.33329 12.4974 3.33329C13.8206 3.33329 14.9621 4.10383 15.5006 5.21922C17.1461 5.7763 18.3307 7.33229 18.3307 9.16663C18.3307 11.4678 16.4652 13.3333 14.1641 13.3333H5.83073C3.52955 13.3333 1.66406 11.4678 1.66406 9.16663C1.66406 7.41978 2.7384 5.92554 4.26155 5.30582ZM8.7474 3.33329C7.21949 3.33329 5.96525 4.50872 5.8409 6.00404C5.8114 6.35873 5.5599 6.65553 5.21487 6.74285C4.1315 7.01699 3.33073 7.99933 3.33073 9.16663C3.33073 10.5474 4.45002 11.6666 5.83073 11.6666H14.1641C15.5448 11.6666 16.6641 10.5474 16.6641 9.16663C16.6641 7.97154 15.8246 6.97055 14.7026 6.7246C14.4116 6.66079 14.1766 6.44641 14.0866 6.16233C13.8728 5.48744 13.2409 4.99996 12.4974 4.99996C12.3616 4.99996 12.2306 5.01604 12.1058 5.04602C11.7601 5.1291 11.3998 4.9837 11.2086 4.68397C10.6893 3.87008 9.78073 3.33329 8.7474 3.33329Z" fill="#C8231C"/>
  <path d="M6.29827 14.3066C6.68121 14.562 6.7847 15.0794 6.5294 15.4623L4.86273 17.9623C4.60744 18.3452 4.09005 18.4487 3.70711 18.1934C3.32417 17.9381 3.22069 17.4207 3.47598 17.0378L5.14265 14.5378C5.39795 14.1549 5.91534 14.0514 6.29827 14.3066Z" fill="#C8231C"/>
  <path d="M9.8575 15.4623C10.1128 15.0794 10.0093 14.562 9.62641 14.3066C9.2435 14.0514 8.72607 14.1549 8.47077 14.5378L6.80411 17.0378C6.54881 17.4207 6.6523 17.9381 7.03523 18.1934C7.41817 18.4487 7.93556 18.3452 8.19086 17.9623L9.8575 15.4623Z" fill="#C8231C"/>
  <path d="M12.9623 14.3066C13.3453 14.562 13.4488 15.0794 13.1934 15.4623L11.5268 17.9623C11.2715 18.3452 10.7541 18.4487 10.3712 18.1934C9.98826 17.9381 9.88476 17.4207 10.14 17.0378L11.8067 14.5378C12.062 14.1549 12.5794 14.0514 12.9623 14.3066Z" fill="#C8231C"/>
  <path d="M16.5294 15.4623C16.7847 15.0794 16.6812 14.562 16.2983 14.3066C15.9154 14.0514 15.3979 14.1549 15.1426 14.5378L13.4759 17.0378C13.2207 17.4207 13.3242 17.9381 13.7071 18.1934C14.09 18.4487 14.6074 18.3452 14.8627 17.9623L16.5294 15.4623Z" fill="#C8231C"/>
</svg>