<svg xmlns="http://www.w3.org/2000/svg" width="20" height="20" viewBox="0 0 20 20" fill="none">
  <g clip-path="url(#clip0_166_4147)">
    <path d="M19.4113 13.8533H12.6382L17.6135 8.87804V9.8525C17.6135 10.2091 17.8992 10.4948 18.2557 10.4948C18.6123 10.4948 18.898 10.2091 18.898 9.8525V7.35237C18.898 6.99581 18.6123 6.71011 18.2557 6.71011H15.7556C15.3991 6.71011 15.1134 6.99581 15.1134 7.35237C15.1134 7.70893 15.3991 7.99462 15.7556 7.99462H16.7301L11.5117 13.213L9.48481 11.1861L9.43248 11.1338L9.37945 11.1854L8.58109 11.9627L8.52663 12.0158L8.58038 12.0695L10.3642 13.8533H5.70508L12.5292 7.02921V8.36082C12.5292 8.71739 12.8149 9.00308 13.1715 9.00308C13.528 9.00308 13.8137 8.71739 13.8137 8.36082V5.50354C13.8137 5.14697 13.528 4.86128 13.1715 4.86128H10.2932C9.9366 4.86128 9.6509 5.14697 9.6509 5.50354C9.6509 5.8601 9.9366 6.14579 10.2932 6.14579H11.6248L4.55758 13.213L2.84581 11.5012C2.60512 11.2605 2.20224 11.264 1.94397 11.4988C1.67557 11.7428 1.70742 12.1484 1.93893 12.4031L1.93886 12.4031L1.94139 12.4057L3.41007 13.8743H0.586787C0.230224 13.8743 -0.0554688 14.16 -0.0554688 14.5166C-0.0554688 14.8732 0.230224 15.1589 0.586787 15.1589H19.4323C19.7888 15.1589 20.0745 14.8732 20.0745 14.5166H20.0747L20.0744 14.5119C20.0512 14.1406 19.7702 13.8533 19.4113 13.8533Z" fill="#C8231C" stroke="#C8231C" stroke-width="0.15"/>
  </g>
  <defs>
    <clipPath id="clip0_166_4147">
      <rect width="20" height="20" fill="white"/>
    </clipPath>
  </defs>
</svg>