<svg xmlns="http://www.w3.org/2000/svg" width="22" height="20" viewBox="0 0 22 20" fill="none">
  <path d="M6 12.4047C7.32585 12.4047 8.40469 11.3259 8.40469 10C8.40469 8.67415 7.32585 7.59531 6 7.59531C4.67415 7.59531 3.59531 8.67415 3.59531 10C3.59531 11.3259 4.67415 12.4047 6 12.4047ZM6 8.73281C6.69883 8.73281 7.26719 9.30117 7.26719 10C7.26719 10.6985 6.69882 11.2672 6 11.2672C5.30118 11.2672 4.73281 10.6985 4.73281 10C4.73281 9.30117 5.30117 8.73281 6 8.73281Z" fill="#C8231C" stroke="#C8231C" stroke-width="0.2"/>
  <path d="M5.9625 4.94094V4.94032L5.95406 4.94125L5.95313 4.94125C3.18402 4.96708 0.939062 7.22532 0.939062 10C0.939062 12.7905 3.20883 15.0603 5.99904 15.0609H5.99906H5.99937H5.99938H5.99939H5.9994H5.9994H5.99941H5.99942H5.99943H5.99943H5.99944H5.99945H5.99946H5.99947H5.99947H5.99948H5.99949H5.9995H5.9995H5.99951H5.99952H5.99953H5.99953H5.99954H5.99955H5.99956H5.99956H5.99957H5.99958H5.99959H5.99959H5.9996H5.99961H5.99962H5.99962H5.99963H5.99964H5.99965H5.99965H5.99966H5.99967H5.99968H5.99968H5.99969H5.9997H5.99971H5.99971H5.99972H5.99973H5.99974H5.99974H5.99975H5.99976H5.99977H5.99977H5.99978H5.99979H5.9998H5.9998H5.99981H5.99982H5.99983H5.99983H5.99984H5.99985H5.99985H5.99986H5.99987H5.99988H5.99989H5.99989H5.9999H5.99991H5.99991H5.99992H5.99993H5.99994H5.99995H5.99995H5.99996H5.99997H5.99998H5.99999H5.99999H6C6.36741 15.0609 6.72471 15.0192 7.0693 14.9448L17.3109 13.799C19.3835 13.771 21.0609 12.0789 21.0609 10C21.0609 7.92207 19.3848 6.2306 17.3134 6.20101L7.06838 5.05494C6.72405 4.98046 6.36737 4.93906 6.00031 4.93906C5.99008 4.93906 5.98058 4.93978 5.97479 4.94022L5.97393 4.94028C5.96711 4.94079 5.96456 4.94094 5.9625 4.94094ZM19.9234 10C19.9234 11.4688 18.7282 12.6641 17.2591 12.6641C15.7905 12.6641 14.5953 11.4688 14.5953 10C14.5953 8.53116 15.7905 7.33594 17.2591 7.33594C18.7282 7.33594 19.9234 8.53117 19.9234 10ZM2.07656 10C2.07656 7.84455 3.82418 6.09038 5.97656 6.07753L6.87267 6.17782C8.61718 6.57601 9.92344 8.13736 9.92344 10C9.92344 11.8629 8.61656 13.4246 6.87206 13.8225L5.97781 13.9225C3.82481 13.9102 2.07656 12.1558 2.07656 10ZM11.0609 10C11.0609 8.63431 10.5138 7.39689 9.63155 6.48646L14.8457 7.06971C14.0002 7.76697 13.4578 8.82009 13.4578 10C13.4578 11.1799 14.0001 12.2333 14.8459 12.9303L9.63132 13.5138C10.5138 12.6034 11.0609 11.366 11.0609 10Z" fill="#C8231C" stroke="#C8231C" stroke-width="0.2"/>
</svg>