<svg xmlns="http://www.w3.org/2000/svg" width="20" height="20" viewBox="0 0 20 20" fill="none">
  <path d="M16.5497 14.5212L16.5495 14.5212L14.9209 14.1763C14.7182 14.4152 14.4977 14.6394 14.2614 14.8467L14.6349 16.4696C14.6947 16.7293 14.5595 16.9944 14.3141 17.0985L12.1097 18.0342L16.5497 14.5212ZM16.5497 14.5212C16.8092 14.5758 17.0726 14.4369 17.1727 14.1895L17.1727 14.1895M16.5497 14.5212L17.1727 14.1895M17.1727 14.1895L18.0699 11.9687L17.9679 11.9275M17.1727 14.1895L17.9679 11.9275M17.9679 11.9275L18.0699 11.9687C18.1697 11.7217 18.078 11.4387 17.8521 11.2973C17.8521 11.2973 17.8521 11.2973 17.8521 11.2973L16.441 10.4141C16.4611 10.1014 16.4582 9.78695 16.4322 9.47388L17.8284 8.56571L17.8284 8.56569M17.9679 11.9275L17.8284 8.56569M17.8284 8.56569C18.0516 8.42043 18.1385 8.13583 18.0344 7.89062L17.0986 5.6859C16.9944 5.4403 16.7282 5.30605 16.47 5.36503L16.4698 5.36507M17.8284 8.56569L16.4698 5.36507M16.4698 5.36507L14.8468 5.73847C14.6394 5.50224 14.4153 5.2818 14.1764 5.07897L14.5214 3.45048L14.5214 3.45038M16.4698 5.36507L14.5214 3.45038M14.5214 3.45038C14.5764 3.18977 14.4367 2.92701 14.1896 2.82721C14.1896 2.82721 14.1896 2.82721 14.1896 2.8272L11.9689 1.92999L11.9688 1.92995M14.5214 3.45038L11.9688 1.92995M11.9688 1.92995C11.7212 1.83018 11.4388 1.92251 11.2975 2.14787L11.2974 2.14793M11.9688 1.92995L11.2974 2.14793M11.2974 2.14793L10.414 3.55903C10.1016 3.53895 9.78728 3.54174 9.4739 3.56772L8.56572 2.17174L8.56568 2.17168M11.2974 2.14793L8.56568 2.17168M8.56568 2.17168C8.42046 1.94875 8.13547 1.861 7.89036 1.96577M8.56568 2.17168L7.89036 1.96577M7.89036 1.96577C7.89032 1.96579 7.89029 1.9658 7.89025 1.96582L5.68591 2.90152C5.6859 2.90153 5.68589 2.90154 5.68587 2.90154C5.44045 3.00563 5.30526 3.27069 5.36506 3.53036C5.36506 3.53037 5.36506 3.53037 5.36506 3.53038L5.73856 5.15334C5.50232 5.36055 5.28194 5.58462 5.07905 5.82367L3.4506 5.47877C3.45057 5.47876 3.45055 5.47876 3.45052 5.47875L3.45046 5.47874L3.42767 5.58635M7.89036 1.96577L2.82728 5.81042L2.92927 5.85163M3.42767 5.58635C3.21977 5.54204 3.00909 5.65393 2.92927 5.85163M3.42767 5.58635L5.12084 5.94496L3.42767 5.58635ZM2.92927 5.85163L2.82727 5.81045L1.93007 8.03115M2.92927 5.85163L2.03205 8.07236C1.95224 8.26984 2.02561 8.4963 2.20627 8.60936M2.20627 8.60936L2.1479 8.7026C1.922 8.56122 1.83027 8.27807 1.93006 8.03116M2.20627 8.60936L2.14791 8.7026L3.559 9.58593M2.20627 8.60936L3.67331 9.52771M1.93006 8.03116L2.03204 8.07236L1.93007 8.03115M1.93006 8.03116C1.93006 8.03115 1.93006 8.03115 1.93007 8.03115M1.93006 8.03116L1.93007 8.03115M3.67331 9.52771L3.56361 9.51953C3.56196 9.54165 3.56042 9.56379 3.559 9.58593M3.67331 9.52771L3.61494 9.62095L3.559 9.58593M3.67331 9.52771C3.64714 9.87827 3.65035 10.2312 3.68317 10.5823M3.559 9.58593C3.53893 9.89864 3.5418 10.213 3.56779 10.5261M3.56779 10.5261L2.1716 11.4343L2.17157 11.4343C1.94838 11.5796 1.86146 11.8642 1.96555 12.1094L2.90135 14.314L3.56779 10.5261ZM3.56779 10.5261L3.62319 10.4901L3.68317 10.5823M3.56779 10.5261C3.56963 10.5483 3.57158 10.5704 3.57365 10.5925L3.68317 10.5823M3.56779 10.5261L3.68317 10.5823M3.53021 14.6349L3.52991 14.635C3.27128 14.6938 3.00543 14.5598 2.9014 14.3141L3.53021 14.6349ZM3.53021 14.6349L5.15322 14.2615C5.36041 14.4976 5.58456 14.7181 5.82363 14.9211L5.4786 16.5495L5.47858 16.5496M3.53021 14.6349L5.47858 16.5496M5.47858 16.5496C5.42361 16.8102 5.56328 17.073 5.81039 17.1728C5.8104 17.1728 5.8104 17.1728 5.81041 17.1728L8.03113 18.07L8.07233 17.968L8.03113 18.07C8.09816 18.0971 8.16795 18.11 8.23666 18.11C8.4213 18.11 8.5995 18.0168 8.70257 17.8521L9.58599 16.441C9.89843 16.4612 10.2128 16.4583 10.5261 16.4323L11.4343 17.8283L11.4343 17.8283M5.47858 16.5496L11.4343 17.8283M11.4343 17.8283C11.5795 18.0514 11.8647 18.1388 12.1095 18.0343L11.4343 17.8283ZM15.3179 10.6352C15.2924 10.8465 15.3914 11.0533 15.5716 11.1662L15.5717 11.1663L16.8786 11.9843L16.3264 13.3508L14.818 13.0315L14.818 13.0314C14.6108 12.9877 14.3953 13.0674 14.2666 13.237L14.2665 13.2371C13.992 13.5993 13.6707 13.9259 13.311 14.2082L13.3109 14.2082L15.4271 10.6483M15.3179 10.6352L15.4271 10.6483M15.3179 10.6352C15.3179 10.6352 15.3179 10.6352 15.3179 10.6353L15.4271 10.6483M15.3179 10.6352C15.3719 10.1839 15.3675 9.72553 15.305 9.2728L15.305 9.27275C15.2761 9.06197 15.3713 8.85332 15.5496 8.73716L15.5497 8.73712L16.8431 7.89588M15.4271 10.6483C15.4822 10.1876 15.4777 9.71979 15.414 9.25778C15.3908 9.08914 15.467 8.92224 15.6097 8.82933L16.9804 7.9378M16.8431 7.89588L16.8791 7.98078L16.9804 7.9378M16.8431 7.89588L16.2673 6.53921L14.7635 6.8851L14.7634 6.88512C14.5552 6.9328 14.3394 6.85628 14.2082 6.68879C13.9261 6.32925 13.5992 6.00788 13.2371 5.73364L13.2371 5.73362C13.0676 5.60511 12.9874 5.39015 13.0314 5.1819L13.0314 5.18183L13.351 3.6734L11.9844 3.1213L11.1662 4.4283C11.1662 4.42831 11.1662 4.42832 11.1662 4.42833C11.0528 4.6095 10.8459 4.70576 10.636 4.68246L10.635 4.68235C10.1841 4.62803 9.72626 4.63232 9.27296 4.69486L9.27289 4.69487C9.06294 4.7237 8.85332 4.6288 8.73727 4.45033C8.73727 4.45033 8.73726 4.45032 8.73726 4.45031L7.89592 3.15703M16.8431 7.89588L16.9204 7.84559L16.9804 7.9378M16.9804 7.9378L16.3325 6.41134L7.89592 3.15703M9.25792 4.5859C9.08993 4.60896 8.92217 4.53291 8.82948 4.39035L9.25792 4.5859ZM9.25792 4.5859C9.72049 4.52208 10.1877 4.51768 10.6482 4.57313L9.25792 4.5859ZM7.89592 3.15703L6.53925 3.73287L6.88521 5.23649L6.88522 5.2365L6.77802 5.26116L7.89592 3.15703ZM4.68216 9.36475C4.70764 9.15344 4.60859 8.94662 4.42839 8.83373L4.42836 8.83371L3.12144 8.01556L3.67365 6.64907L5.18181 6.96847L5.18199 6.96851L5.20478 6.86089L13.222 14.7388L13.1148 14.7635L13.1148 14.7635L13.4608 16.2671L12.1041 16.8429L11.2628 15.5496L11.2627 15.5496C11.1468 15.3715 10.9363 15.2748 10.7264 15.3052L10.7421 15.4141M4.68216 9.36475C4.68216 9.36477 4.68215 9.36479 4.68215 9.36481L4.57294 9.35163M4.68216 9.36475C4.68216 9.36474 4.68216 9.36472 4.68217 9.3647L4.57294 9.35163M4.68216 9.36475C4.62817 9.81595 4.63257 10.2744 4.69501 10.7272L4.69501 10.7272C4.72398 10.938 4.62878 11.1467 4.45041 11.2628L4.45036 11.2628L3.15695 12.1041L3.73279 13.4608L5.23654 13.1149L5.23677 13.1148C5.44524 13.0673 5.66058 13.1436 5.79184 13.3111C6.07374 13.6704 6.40059 13.9918 6.76293 14.2663L6.76298 14.2664C6.93245 14.395 7.01266 14.6098 6.96866 14.8181L6.96865 14.8181L6.64901 16.3266L8.0156 16.8787L8.83377 15.5718C8.83379 15.5717 8.83381 15.5717 8.83382 15.5717C8.9466 15.3911 9.15283 15.2924 9.36485 15.3176L9.36504 15.3176C9.81599 15.3719 10.2738 15.3676 10.7271 15.3051L10.7421 15.4141M4.57294 9.35163C4.51782 9.81226 4.52233 10.2802 4.58604 10.7422L4.36999 8.92694C4.51416 9.01726 4.59333 9.18269 4.57294 9.35163ZM10.7421 15.4141C10.909 15.3899 11.0777 15.467 11.1706 15.6096L8.92709 15.63C9.01721 15.4856 9.18198 15.4067 9.35189 15.4268C9.81229 15.4823 10.2796 15.4779 10.7421 15.4141ZM13.139 5.20464L13.4778 3.60596L13.139 5.20464ZM13.139 5.20464C13.1038 5.37123 13.168 5.54318 13.3036 5.64595L13.139 5.20464Z" fill="#C8231C" stroke="#C8231C" stroke-width="0.22"/>
  <path d="M7.10717 8.83116L7.10715 8.83119C6.46281 10.4263 7.23621 12.2482 8.83125 12.8928C9.21274 13.0469 9.60756 13.12 9.99617 13.12C11.2305 13.12 12.4024 12.3824 12.8928 11.1688L12.8928 11.1688C13.5372 9.57354 12.764 7.75169 11.1687 7.10716C9.57405 6.46279 7.75187 7.23622 7.10717 8.83116ZM9.2009 11.9776L9.2009 11.9776C8.11067 11.5371 7.58192 10.2914 8.02231 9.20094C8.4631 8.11063 9.70883 7.58166 10.799 8.02232L10.799 8.02233C11.8893 8.46285 12.4181 9.70865 11.9776 10.799C11.5372 11.8892 10.2917 12.4183 9.2009 11.9776Z" fill="#C8231C" stroke="#C8231C" stroke-width="0.24"/>
</svg>