<svg xmlns="http://www.w3.org/2000/svg" width="20" height="20" viewBox="0 0 20 20" fill="none">
  <path d="M10.8344 12.7334V7.08337C10.8344 6.86236 10.7466 6.6504 10.5903 6.49412C10.434 6.33784 10.2221 6.25004 10.001 6.25004C9.78003 6.25004 9.56807 6.33784 9.41178 6.49412C9.2555 6.6504 9.16771 6.86236 9.16771 7.08337V12.7334C8.91581 12.8788 8.70636 13.0876 8.56016 13.3391C8.41397 13.5905 8.33613 13.8759 8.33437 14.1667C8.33437 14.6087 8.50997 15.0327 8.82253 15.3452C9.13509 15.6578 9.55901 15.8334 10.001 15.8334C10.4431 15.8334 10.867 15.6578 11.1796 15.3452C11.4921 15.0327 11.6677 14.6087 11.6677 14.1667C11.666 13.8759 11.5881 13.5905 11.4419 13.3391C11.2957 13.0876 11.0863 12.8788 10.8344 12.7334ZM13.751 10.8334V4.58337C13.751 3.58881 13.356 2.63498 12.6527 1.93172C11.9494 1.22846 10.9956 0.833374 10.001 0.833374C9.00648 0.833374 8.05265 1.22846 7.34939 1.93172C6.64613 2.63498 6.25104 3.58881 6.25104 4.58337V10.8334C5.67508 11.486 5.27948 12.2778 5.10338 13.1302C4.92729 13.9827 4.97679 14.8664 5.247 15.6938C5.51721 16.5213 5.99876 17.2639 6.64402 17.8481C7.28928 18.4324 8.07589 18.8381 8.92604 19.025C9.2792 19.1055 9.63909 19.153 10.001 19.1667C10.9682 19.1712 11.916 18.8951 12.7294 18.3718C13.5428 17.8486 14.187 17.1006 14.5839 16.2186C14.9808 15.3366 15.1134 14.3584 14.9656 13.4025C14.8177 12.4467 14.3958 11.5543 13.751 10.8334ZM12.0844 16.725C11.4213 17.3129 10.5519 17.6134 9.66736 17.5602C8.78281 17.5071 7.9556 17.1047 7.36771 16.4417C6.77981 15.7787 6.47938 14.9092 6.53252 14.0247C6.58566 13.1401 6.988 12.3129 7.65104 11.725C7.72978 11.6479 7.79242 11.5558 7.83534 11.4543C7.87825 11.3527 7.90058 11.2436 7.90104 11.1334V4.58337C7.90104 4.03084 8.12053 3.50094 8.51123 3.11023C8.90193 2.71953 9.43184 2.50004 9.98437 2.50004C10.5369 2.50004 11.0668 2.71953 11.4575 3.11023C11.8482 3.50094 12.0677 4.03084 12.0677 4.58337V11.2C12.0682 11.3103 12.0905 11.4194 12.1334 11.5209C12.1763 11.6225 12.239 11.7145 12.3177 11.7917C12.6583 12.1208 12.9249 12.5186 13.0997 12.9588C13.2745 13.399 13.3535 13.8714 13.3314 14.3445C13.3094 14.8176 13.1867 15.2805 12.9717 15.7025C12.7567 16.1245 12.4542 16.4958 12.0844 16.7917V16.725Z" fill="#C8231C"/>
</svg>