<svg width="177" height="55" viewBox="0 0 177 55" fill="none" xmlns="http://www.w3.org/2000/svg">
<rect width="177" height="50" rx="10" fill="white"/>
<path d="M58.9896 11.8884C60.592 11.8884 61.9154 12.4209 62.96 13.4857C64.0046 14.5303 64.5269 15.8436 64.5269 17.4257C64.5269 18.9976 64.0046 20.311 62.96 21.3657C61.9154 22.4305 60.592 22.963 58.9896 22.963C58.0262 22.963 57.1388 22.7399 56.3275 22.2936C55.5162 21.8373 54.8823 21.2237 54.4259 20.4529L56.2362 19.4033C56.4897 19.8698 56.8599 20.24 57.3467 20.5138C57.8436 20.7775 58.3913 20.9093 58.9896 20.9093C59.8415 20.9093 60.5616 20.6862 61.1498 20.24C61.7481 19.7836 62.1386 19.17 62.3211 18.3993H57.5749V16.4369H62.3211C62.1386 15.6662 61.7481 15.0577 61.1498 14.6114C60.5616 14.1551 59.8415 13.9269 58.9896 13.9269C58.3913 13.9269 57.8487 14.0638 57.3619 14.3376C56.8751 14.6013 56.4999 14.9715 56.2362 15.4481L54.4259 14.3985C54.8823 13.6277 55.5162 13.0192 56.3275 12.573C57.1489 12.1166 58.0363 11.8884 58.9896 11.8884ZM64.5663 22.75V20.8028C65.2154 20.8941 65.6921 20.7623 65.9963 20.4073C66.3005 20.0422 66.4527 19.3729 66.4527 18.3993V12.1014H73.6937V22.75H71.6096V14.1094H68.5367V18.3384C68.5367 20.1741 68.1159 21.4164 67.2741 22.0654C66.5541 22.6334 65.6515 22.8616 64.5663 22.75ZM77.7673 18.3537V20.742H82.2549V22.75H75.668V12.1014H82.1788V14.1094H77.7673V16.3761H81.7985V18.3537H77.7673ZM87.9636 17.2736L92.0557 22.75H89.637L85.8339 17.7604V22.75H83.7346V12.1014H85.8339V16.802L89.4849 12.1014H91.9036L87.9636 17.2736ZM92.3027 12.1014H100.137V14.1094H97.2619V22.75H95.1626V14.1094H92.3027V12.1014ZM101.309 12.1014H105.279C106.294 12.1014 107.156 12.4462 107.865 13.1358C108.565 13.8255 108.915 14.6723 108.915 15.6763C108.915 16.6803 108.565 17.5271 107.865 18.2167C107.156 18.9064 106.294 19.2512 105.279 19.2512H103.408V22.75H101.309V12.1014ZM103.408 17.2888H105.279C105.726 17.2888 106.096 17.1367 106.39 16.8324C106.684 16.518 106.831 16.1327 106.831 15.6763C106.831 15.2098 106.684 14.8244 106.39 14.5202C106.096 14.2159 105.726 14.0638 105.279 14.0638H103.408V17.2888ZM119.168 21.3657C118.093 22.4305 116.784 22.963 115.243 22.963C113.701 22.963 112.393 22.4305 111.318 21.3657C110.253 20.2805 109.721 18.9672 109.721 17.4257C109.721 15.8741 110.253 14.5658 111.318 13.5009C112.393 12.4259 113.701 11.8884 115.243 11.8884C116.784 11.8884 118.093 12.4259 119.168 13.5009C120.243 14.5658 120.78 15.8741 120.78 17.4257C120.78 18.9774 120.243 20.2907 119.168 21.3657ZM112.794 19.9357C113.443 20.5848 114.259 20.9093 115.243 20.9093C116.227 20.9093 117.043 20.5848 117.692 19.9357C118.351 19.2765 118.681 18.4399 118.681 17.4257C118.681 16.4116 118.351 15.5749 117.692 14.9157C117.033 14.2565 116.216 13.9269 115.243 13.9269C114.269 13.9269 113.453 14.2565 112.794 14.9157C112.134 15.5749 111.805 16.4116 111.805 17.4257C111.805 18.4399 112.134 19.2765 112.794 19.9357ZM128.31 16.3304V12.1014H130.394V22.75H128.31V18.3384H124.355V22.75H122.256V12.1014H124.355V16.3304H128.31ZM138.427 16.3304V12.1014H140.511V22.75H138.427V18.3384H134.472V22.75H132.372V12.1014H134.472V16.3304H138.427ZM146.459 22.75H142.489V12.1014H144.588V15.6002H146.459C147.474 15.6002 148.336 15.945 149.046 16.6347C149.745 17.3243 150.095 18.1711 150.095 19.1751C150.095 20.1791 149.745 21.0259 149.046 21.7156C148.336 22.4052 147.474 22.75 146.459 22.75ZM153.153 22.75H151.069V12.1014H153.153V22.75ZM144.588 17.5626V20.7876H146.459C146.906 20.7876 147.276 20.6355 147.57 20.3313C147.864 20.027 148.011 19.6416 148.011 19.1751C148.011 18.7086 147.864 18.3232 147.57 18.019C147.276 17.7147 146.906 17.5626 146.459 17.5626H144.588ZM157.231 18.3537V20.742H161.718V22.75H155.131V12.1014H161.642V14.1094H157.231V16.3761H161.262V18.3537H157.231ZM54.9888 27.1014H62.9448V37.75H60.8455V29.1094H57.0881V37.75H54.9888V27.1014ZM64.9273 27.1014H68.8977C69.9118 27.1014 70.7739 27.4462 71.4838 28.1358C72.1835 28.8255 72.5334 29.6723 72.5334 30.6763C72.5334 31.6803 72.1835 32.5271 71.4838 33.2167C70.7739 33.9064 69.9118 34.2512 68.8977 34.2512H67.0266V37.75H64.9273V27.1014ZM67.0266 32.2888H68.8977C69.3439 32.2888 69.7141 32.1367 70.0082 31.8324C70.3023 31.518 70.4493 31.1327 70.4493 30.6763C70.4493 30.2098 70.3023 29.8244 70.0082 29.5202C69.7141 29.2159 69.3439 29.0638 68.8977 29.0638H67.0266V32.2888ZM82.1604 37.75H80.0611V31.2544L75.4974 37.75H73.9001V27.1014H75.9994V33.6123L80.5631 27.1014H82.1604V37.75ZM86.235 31.1327H88.2126C89.2572 31.1327 90.104 31.442 90.7531 32.0606C91.4123 32.6691 91.7419 33.4601 91.7419 34.4337C91.7419 35.4073 91.4123 36.2085 90.7531 36.8373C90.104 37.4458 89.2572 37.75 88.2126 37.75H84.1357V27.1014H90.8291V29.1094H86.235V31.1327ZM86.235 35.7876H88.2126C88.6386 35.7876 88.9834 35.6659 89.2471 35.4225C89.5209 35.1791 89.6578 34.8495 89.6578 34.4337C89.6578 34.0179 89.5209 33.6934 89.2471 33.4601C88.9834 33.2167 88.6386 33.095 88.2126 33.095H86.235V35.7876ZM101.92 36.3657C100.845 37.4305 99.5368 37.963 97.9953 37.963C96.4538 37.963 95.1455 37.4305 94.0705 36.3657C93.0057 35.2805 92.4732 33.9672 92.4732 32.4257C92.4732 30.8741 93.0057 29.5658 94.0705 28.5009C95.1455 27.4259 96.4538 26.8884 97.9953 26.8884C99.5368 26.8884 100.845 27.4259 101.92 28.5009C102.995 29.5658 103.533 30.8741 103.533 32.4257C103.533 33.9774 102.995 35.2907 101.92 36.3657ZM95.5461 34.9357C96.1952 35.5848 97.0116 35.9093 97.9953 35.9093C98.979 35.9093 99.7954 35.5848 100.444 34.9357C101.104 34.2765 101.433 33.4399 101.433 32.4257C101.433 31.4116 101.104 30.5749 100.444 29.9157C99.7853 29.2565 98.9689 28.9269 97.9953 28.9269C97.0217 28.9269 96.2053 29.2565 95.5461 29.9157C94.8869 30.5749 94.5573 31.4116 94.5573 32.4257C94.5573 33.4399 94.8869 34.2765 95.5461 34.9357ZM105.008 27.1014H108.978C109.993 27.1014 110.855 27.4462 111.565 28.1358C112.264 28.8255 112.614 29.6723 112.614 30.6763C112.614 31.6803 112.264 32.5271 111.565 33.2167C110.855 33.9064 109.993 34.2512 108.978 34.2512H107.107V37.75H105.008V27.1014ZM107.107 32.2888H108.978C109.425 32.2888 109.795 32.1367 110.089 31.8324C110.383 31.518 110.53 31.1327 110.53 30.6763C110.53 30.2098 110.383 29.8244 110.089 29.5202C109.795 29.2159 109.425 29.0638 108.978 29.0638H107.107V32.2888ZM117.951 37.75H113.981V27.1014H116.08V30.6002H117.951C118.965 30.6002 119.827 30.945 120.537 31.6347C121.237 32.3243 121.587 33.1711 121.587 34.1751C121.587 35.1791 121.237 36.0259 120.537 36.7156C119.827 37.4052 118.965 37.75 117.951 37.75ZM124.645 37.75H122.561V27.1014H124.645V37.75ZM116.08 32.5626V35.7876H117.951C118.398 35.7876 118.768 35.6355 119.062 35.3313C119.356 35.027 119.503 34.6416 119.503 34.1751C119.503 33.7086 119.356 33.3232 119.062 33.019C118.768 32.7147 118.398 32.5626 117.951 32.5626H116.08Z" fill="#0A2B49"/>
<g clip-path="url(#clip0_166_5486)">
<path d="M27.963 10.0864C24.0063 10.6222 20.3365 12.7819 17.9549 15.9754C17.484 16.6087 17.4731 16.6303 16.9643 17.4964C15.9576 19.2068 15.3135 21.1445 15.0428 23.2339C14.9454 24.0404 14.9562 26.1134 15.0699 26.9416C16.0063 33.7237 21.2999 39.0282 28.0063 39.905C28.9481 40.0241 29.0888 40.0187 29.2999 39.8293L29.4786 39.6723L29.4948 38.4382C29.5056 37.5776 29.4948 37.1608 29.4461 37.0525C29.3486 36.8144 29.143 36.7007 28.7208 36.6628C27.6166 36.5491 26.0469 36.1107 24.9914 35.6073C21.6572 34.0322 19.2269 30.9307 18.4961 27.3205C17.4353 22.1026 20.0388 16.8144 24.8236 14.4653C25.9819 13.8969 27.5462 13.4368 28.7208 13.3286C29.484 13.2528 29.5164 13.177 29.4948 11.564L29.4786 10.3137L29.2999 10.1567C29.1484 10.0214 29.0834 9.99975 28.8128 10.0052C28.645 10.0106 28.2607 10.0431 27.963 10.0864Z" fill="#1642A2"/>
<path d="M31.1998 10.038C31.1349 10.0488 31.0158 10.1354 30.94 10.222L30.8047 10.3898V11.6726C30.8047 13.0745 30.8101 13.1124 31.1295 13.2748C31.2161 13.3181 31.3622 13.356 31.4596 13.356C31.7898 13.356 33.0077 13.632 33.7276 13.8756C35.8277 14.5792 37.641 15.8296 39.0537 17.5508C40.3798 19.1638 41.2079 20.9879 41.6031 23.1801C41.7221 23.8404 41.7709 25.4696 41.6897 26.1625C41.1484 30.8228 38.0686 34.6658 33.7221 36.111C33.0023 36.3546 31.7898 36.6307 31.4596 36.6307C31.3622 36.6307 31.2161 36.6685 31.1295 36.7119C30.8101 36.8742 30.8047 36.9121 30.8047 38.3357V39.6401L30.9562 39.7809C31.0374 39.8566 31.1782 39.9378 31.2702 39.9541C31.6058 40.0298 33.5868 39.651 34.5395 39.337C37.1376 38.4818 39.2539 37.1124 41.1267 35.088C42.7343 33.3506 43.9792 31.0393 44.5801 28.674C44.9373 27.2883 45.0943 25.5129 44.9968 24.0569C44.8507 21.9189 44.369 20.1219 43.438 18.2815C42.5449 16.517 41.5814 15.2396 40.0875 13.8539C38.2093 12.1165 35.5516 10.7579 33.0618 10.2653C32.5855 10.1733 31.4867 10.0001 31.4001 10.0055C31.3568 10.0109 31.2648 10.0271 31.1998 10.038Z" fill="#1642A2"/>
<path d="M26.4582 22.3407C22.8317 22.3948 19.8547 22.4435 19.8439 22.4598C19.8276 22.4706 21.7654 23.1256 24.147 23.9104C26.5286 24.7007 28.4771 25.361 28.4771 25.3827C28.4771 25.4205 28.4014 25.4963 26.9995 26.7791C26.469 27.2609 26.0468 27.6614 26.0522 27.6722C26.0685 27.6831 40.1253 27.5477 40.1686 27.5369C40.1957 27.5315 39.1023 27.2392 31.8926 25.3123C31.465 25.1986 31.1077 25.0958 31.0915 25.085C31.0807 25.0741 31.5029 24.6628 32.0333 24.1756C33.2512 23.0552 34.0198 22.3245 34.0414 22.2703C34.0522 22.2487 33.8357 22.2379 33.5543 22.2379C33.2782 22.2433 30.0847 22.292 26.4582 22.3407Z" fill="#C8231C"/>
</g>
<path d="M88.5 55L94 50H83L88.5 55Z" fill="#C8231C"/>
<defs>
<clipPath id="clip0_166_5486">
<rect width="30" height="30" fill="white" transform="translate(15 10)"/>
</clipPath>
</defs>
</svg>
