<svg xmlns="http://www.w3.org/2000/svg" width="20" height="20" viewBox="0 0 20 20" fill="none">
  <path d="M16 4H4C3.46974 4.00054 2.96136 4.20185 2.58641 4.55976C2.21146 4.91766 2.00057 5.40293 2 5.90909V14.0909C2.00057 14.5971 2.21146 15.0823 2.58641 15.4402C2.96136 15.7981 3.46974 15.9995 4 16H16C16.5303 15.9995 17.0386 15.7981 17.4136 15.4402C17.7885 15.0823 17.9994 14.5971 18 14.0909V5.90909C17.9994 5.40293 17.7885 4.91766 17.4136 4.55976C17.0386 4.20185 16.5303 4.00054 16 4ZM15.4936 7.15784L10.3507 10.976C10.2504 11.0504 10.127 11.0908 10 11.0908C9.87298 11.0908 9.74957 11.0504 9.64929 10.976L4.50643 7.15784C4.446 7.11428 4.39525 7.0597 4.35712 6.99726C4.31899 6.93482 4.29424 6.86576 4.2843 6.79411C4.27437 6.72246 4.27946 6.64964 4.29926 6.57988C4.31907 6.51012 4.3532 6.44481 4.39968 6.38776C4.44615 6.3307 4.50405 6.28302 4.56999 6.24751C4.63594 6.21199 4.70862 6.18934 4.78382 6.18087C4.85901 6.17239 4.93522 6.17827 5.00802 6.19816C5.08081 6.21804 5.14874 6.25154 5.20786 6.2967L10 9.85443L14.7921 6.2967C14.912 6.21033 15.0626 6.17244 15.2115 6.19124C15.3603 6.21005 15.4955 6.28402 15.5876 6.39718C15.6798 6.51033 15.7216 6.65357 15.704 6.79592C15.6864 6.93826 15.6108 7.06828 15.4936 7.15784Z" fill="#1642A2"/>
</svg>