<svg xmlns="http://www.w3.org/2000/svg" width="40" height="40" viewBox="0 0 40 40" fill="none">
  <path d="M19.2227 12.8C21.9841 12.8 24.2227 10.5615 24.2227 7.80005C24.2227 5.03863 21.9841 2.80005 19.2227 2.80005C16.4612 2.80005 14.2227 5.03863 14.2227 7.80005C14.2227 10.5615 16.4612 12.8 19.2227 12.8Z" fill="#C8231C"/>
  <path d="M34.5362 20C33.9566 18.1056 32.8758 16.382 31.4182 14.9344V9.19995C29.4666 9.19995 27.769 10.276 26.879 11.8664C26.3682 11.6404 25.8406 11.4376 25.2978 11.2604C24.8634 12.0188 24.293 12.6892 23.6182 13.2364C24.0938 13.3316 24.5566 13.442 25.0018 13.5708L24.4454 15.492C23.0758 15.0952 21.4854 14.8652 19.7902 14.8656C17.807 14.8648 15.965 15.1812 14.4534 15.7088L13.795 13.8204C14.2078 13.6764 14.639 13.5488 15.0838 13.4352C14.4054 12.936 13.821 12.3176 13.3586 11.612C10.4858 12.7496 8.10777 14.6228 6.56017 16.9416C6.50297 16.902 6.44857 16.8612 6.39777 16.8184C6.18457 16.6408 6.02737 16.442 5.92657 16.2432C5.82577 16.0428 5.77737 15.8456 5.77657 15.632H2.97657C2.97577 16.3016 3.14217 16.9456 3.43017 17.5108C3.84617 18.3268 4.50177 18.982 5.28537 19.4456C4.85337 20.6332 4.61817 21.8928 4.61817 23.1996C4.61817 26.88 6.46537 30.1956 9.41897 32.5303V37.2H14.619V35.2312C16.2406 35.728 17.9914 36 19.8182 36C21.645 36 23.3958 35.728 25.0182 35.2308V37.2H30.2182V32.5303C32.3986 30.8064 33.9734 28.5468 34.649 26H37.0182V20H34.5362ZM29.2182 20.4C28.6658 20.4 28.2182 19.9524 28.2182 19.4C28.2182 18.8476 28.6658 18.4 29.2182 18.4C29.7706 18.4 30.2182 18.8476 30.2182 19.4C30.2182 19.9524 29.7706 20.4 29.2182 20.4Z" fill="#1642A2"/>
</svg>