<svg xmlns="http://www.w3.org/2000/svg" width="40" height="40" viewBox="0 0 40 40" fill="none">
  <path d="M24.162 29.937C25.011 29.0881 25.489 28.7341 26.2703 28.5955V39.1996L21.1997 35.4732V31.5364C22.323 31.3062 23.3534 30.7499 24.162 29.937ZM13.7271 28.5952V39.2001L18.8001 35.4731V31.5364C17.6767 31.3061 16.646 30.7496 15.8373 29.9364C14.9882 29.0874 14.5101 28.7336 13.7271 28.5952ZM19.9999 8.78506C18.7648 8.78482 17.5573 9.15088 16.5303 9.83693C15.5032 10.523 14.7027 11.4982 14.2299 12.6393C13.7571 13.7803 13.6334 15.036 13.8743 16.2474C14.1152 17.4588 14.7099 18.5715 15.5833 19.4449C16.4567 20.3182 17.5694 20.913 18.7808 21.1539C19.9922 21.3948 21.2479 21.271 22.3889 20.7982C23.53 20.3254 24.5052 19.5249 25.1912 18.4978C25.8773 17.4708 26.2433 16.2633 26.2431 15.0282C26.2409 13.3731 25.5824 11.7864 24.4121 10.616C23.2417 9.4457 21.655 8.78724 19.9999 8.78506ZM33.2115 12.5622C33.8639 13.2172 34.2303 14.104 34.2306 15.0285C34.2308 15.953 33.8649 16.8399 33.2128 17.4953C31.5233 19.1819 31.086 20.237 31.086 22.6272C31.0846 23.552 30.7165 24.4385 30.0623 25.0923C29.4081 25.746 28.5213 26.1135 27.5965 26.1142C25.2092 26.1142 24.1542 26.5514 22.4647 28.2408C21.81 28.8929 20.9236 29.2589 19.9995 29.2588C19.0755 29.2587 18.1892 28.8924 17.5346 28.2402C15.8457 26.5514 14.7902 26.1142 12.4009 26.1142C11.4764 26.1132 10.5901 25.7455 9.93638 25.0917C9.28266 24.438 8.91495 23.5517 8.9139 22.6272C8.9139 20.2371 8.47665 19.1819 6.7885 17.4966C6.13602 16.8414 5.76964 15.9545 5.76953 15.0298C5.76942 14.1052 6.1356 13.2181 6.78793 12.5628C8.47681 10.8739 8.91393 9.81891 8.91393 7.43164C8.91496 6.50714 9.28268 5.6208 9.9364 4.96707C10.5901 4.31335 11.4765 3.94562 12.401 3.94458C14.7874 3.94458 15.8427 3.50762 17.5352 1.81804C18.1901 1.16587 19.0767 0.799809 20.0009 0.800049C20.9251 0.800289 21.8116 1.16681 22.4661 1.81932C24.1572 3.50762 25.2121 3.94458 27.5965 3.94458C28.5213 3.94531 29.4081 4.31285 30.0623 4.96658C30.7165 5.6203 31.0846 6.50682 31.086 7.43165C31.086 9.81895 31.5231 10.874 33.2115 12.5622ZM28.6427 15.0282C28.6424 13.3186 28.1352 11.6474 27.1852 10.2261C26.2352 8.80477 24.885 7.69706 23.3055 7.04306C21.7259 6.38905 19.9879 6.21812 18.3112 6.55189C16.6345 6.88565 15.0944 7.70912 13.8857 8.91816C12.677 10.1272 11.854 11.6675 11.5207 13.3443C11.1874 15.0211 11.3588 16.7591 12.0133 18.3384C12.6677 19.9178 13.7758 21.2676 15.1974 22.2172C16.6191 23.1669 18.2903 23.6736 19.9999 23.6733C22.2917 23.6708 24.4889 22.759 26.1093 21.1382C27.7296 19.5174 28.6407 17.32 28.6427 15.0282Z" fill="#1642A2"/>
  <path d="M19.9995 8.78516C18.7643 8.78492 17.5569 9.15097 16.5298 9.83702C15.5028 10.5231 14.7022 11.4983 14.2295 12.6394C13.7567 13.7804 13.6329 15.0361 13.8738 16.2475C14.1147 17.4589 14.7095 18.5716 15.5829 19.445C16.4562 20.3183 17.569 20.9131 18.7804 21.154C19.9918 21.3949 21.2474 21.2711 22.3885 20.7983C23.5295 20.3255 24.5047 19.525 25.1908 18.4979C25.8768 17.4708 26.2429 16.2634 26.2426 15.0283C26.2404 13.3732 25.582 11.7865 24.4116 10.6161C23.2413 9.44579 21.6546 8.78734 19.9995 8.78516Z" fill="#C8231C"/>
</svg>